<svg width="105" height="83" fill="none" xmlns="http://www.w3.org/2000/svg"><path d="M28.546 74.69c.799-1.508 4.274-.559 5.829-.135.175.648.215 1.33.596 1.977.474.807 1.503.946.94 2.21-.82 1.846-1.243 2.946-3.6 2.946-2.251 0-3.43-.922-4.501-2.946-.762-1.439.058-2.77.736-4.051Z" fill="#fff"/><path d="M34.889 74.69c-1.079-.257-5.436-1.712-6.343 0-.678 1.282-1.498 2.613-.736 4.052 1.07 2.023 2.25 2.946 4.5 2.946 2.358 0 2.782-1.1 3.602-2.946.562-1.264-.467-1.403-.941-2.21-.5-.85-.412-1.764-.819-2.578" stroke="#000" stroke-width="2" stroke-linecap="round" stroke-linejoin="round"/><path d="M30.043 57.938c.752-.95 1.339-1.38 2.072-1.647.485-.53 2.952-1.712 3.616-1.75 1.554-.086 2.047-.11 3.724.369 1.564.447 4.3.724 5.483 1.841 1.69 1.596 2.456 3.714 3.13 5.873 1.176 3.76-3.443 4.531-5.872 6.076-2.443 1.555-6.253-.13-8.757-.532-2.39-.384-7.718-.477-7.263-3.887.314-2.357 2.483-4.595 3.867-6.343Z" fill="#fff"/><path d="M34.994 55.647c-2.617.565-3.46.407-4.951 2.291-1.384 1.748-3.553 3.986-3.867 6.343-.455 3.41 4.874 3.503 7.263 3.887 2.504.403 6.314 2.087 8.757.532 2.429-1.545 7.048-2.316 5.873-6.077-.675-2.158-1.441-4.276-3.13-5.872-1.184-1.117-3.92-1.394-5.484-1.841-1.677-.48-2.17-.455-3.724-.368-.706.039-3.448 1.371-3.683 1.841" stroke="#000" stroke-width="2" stroke-linecap="round" stroke-linejoin="round"/><path d="M47.434 4.372c2.943.981 4.483 4.08 6.726 6.047.287-2.856 4.717-4.05 6.778-5.228 2.914-1.665 7.418-2.686 10.803-2.947 2.34-.18 4.546-.596 6.957-.163 4.231.76 8.232 2.153 12.255 3.662 4.24 1.59 7.238 6.477 9.228 10.292 1.519 2.91 3.378 6.529 2.66 9.903-.662 3.113-4.097 6.344-6.425 8.348-4.183 3.6-9.713 5.455-14.65 7.816-1.024.49-2.369-.203-3.437-.45-2.712-.63-5.366-1.616-8.102-2.129-1.554-.29-.943 2.869-1.166 3.806-.564 2.367-1.339 3.502-3.335 5.136-1.355 1.108-4.161 2.025-5.934 2.025-3.912 0-8.82.867-12.604-.184-4.103-1.14-8.172-2.247-12.276-3.58-1.216-.396-5.977-2.927-6.568-.86-.56 1.963-4.385 3.364-6.036 4.072-11.367 4.871-23.611-9.442-20.092-20.44 1.356-4.237 5.21-7.42 8.287-10.496 1.812-1.813 3.328-2.783 5.729-3.683 1.552-.582 3.42-1.15 5.074-.737.63.158 1.273.335 1.882-.02 1.428-.833-1.683-2.508-2.005-3.151-1.059-2.118-.487-6.385 2.067-7.12C27.31 3.12 33.774.639 38.022 1.958c3.092.96 6.32 1.384 9.412 2.414Z" fill="#fff"/><path d="M54.513 10.715c-2.44-1.938-3.984-5.31-7.079-6.343-3.092-1.03-6.32-1.454-9.412-2.414C33.774.639 27.312 3.121 23.25 4.291c-2.554.735-3.126 5.002-2.067 7.12.322.643 3.433 2.318 2.005 3.15-.61.356-1.251.179-1.882.021-1.653-.413-3.522.155-5.074.737-2.401.9-3.917 1.87-5.73 3.683-3.076 3.076-6.93 6.26-8.286 10.496-3.52 10.998 8.725 25.311 20.092 20.44 1.651-.708 5.476-2.11 6.036-4.072.591-2.067 5.352.464 6.568.86 4.104 1.333 8.173 2.44 12.276 3.58 3.783 1.05 8.692.184 12.604.184 1.773 0 4.579-.917 5.934-2.025 1.996-1.634 2.771-2.769 3.335-5.136.223-.937-.388-4.097 1.166-3.806 2.736.513 5.39 1.5 8.102 2.128 1.069.248 2.413.94 3.438.45 4.936-2.36 10.466-4.216 14.65-7.815 2.327-2.004 5.762-5.235 6.424-8.348.718-3.374-1.141-6.993-2.66-9.903-1.99-3.815-4.987-8.702-9.228-10.292C86.93 4.234 82.93 2.84 78.698 2.081c-2.41-.433-4.618-.016-6.957.163-3.385.26-7.89 1.282-10.803 2.947-2.13 1.217-6.793 2.453-6.793 5.524" stroke="#000" stroke-width="2" stroke-linecap="round" stroke-linejoin="round"/><path d="M29.485 32.175c-.798.085-1.513-.017-2.145-.307-.622-.29-1.08-.678-1.376-1.163-.126-.212-.196-.387-.21-.526a.643.643 0 0 1 .156-.51.687.687 0 0 1 .48-.262.69.69 0 0 1 .446.093c.13.08.232.196.304.348.19.384.497.66.919.832.422.17.86.232 1.315.184.575-.061 1.034-.246 1.377-.555.35-.319.505-.678.463-1.077-.033-.306-.215-.568-.548-.786-.324-.22-.859-.392-1.604-.52-.965-.16-1.739-.416-2.32-.767-.583-.36-.913-.902-.99-1.626a2.279 2.279 0 0 1 .251-1.35c.228-.419.576-.76 1.046-1.027.469-.265 1.033-.433 1.692-.503.947-.1 1.709.006 2.287.32.587.313.913.78.98 1.402a.73.73 0 0 1-.141.536.643.643 0 0 1-.465.26.65.65 0 0 1-.703-.517c-.064-.255-.259-.45-.583-.584-.325-.144-.738-.19-1.239-.136-.622.066-1.084.223-1.386.47-.303.24-.436.535-.398.888.034.324.23.58.588.768.358.187.929.352 1.714.494.966.17 1.714.456 2.245.86.53.403.832.939.903 1.607.055.52-.048 1.01-.309 1.469-.26.46-.638.842-1.13 1.148a3.85 3.85 0 0 1-1.62.537Zm7.238-.768a2.655 2.655 0 0 1-1.508-.277 3.02 3.02 0 0 1-1.154-1.06 3.61 3.61 0 0 1-.55-1.588 3.918 3.918 0 0 1 .251-1.886 3.59 3.59 0 0 1 1.053-1.491 2.82 2.82 0 0 1 1.56-.687 2.53 2.53 0 0 1 1.495.292c.477.25.867.607 1.17 1.072.312.465.498.98.558 1.546a4.03 4.03 0 0 1-.247 1.913 3.685 3.685 0 0 1-1.066 1.493 2.873 2.873 0 0 1-1.562.673Zm-.133-1.253c.324-.035.624-.18.897-.433.273-.255.478-.577.615-.967a2.74 2.74 0 0 0 .14-1.211 2.375 2.375 0 0 0-.315-.966 1.898 1.898 0 0 0-.65-.692 1.242 1.242 0 0 0-.825-.208c-.325.035-.619.183-.882.446a2.345 2.345 0 0 0-.572.976 2.901 2.901 0 0 0-.123 1.224c.044.417.152.767.322 1.05.18.28.39.488.63.622.248.134.503.186.763.159Zm5.57.675a.706.706 0 0 1-.492-.13.617.617 0 0 1-.242-.425l-.858-8.075a.626.626 0 0 1 .132-.479.665.665 0 0 1 .467-.246.632.632 0 0 1 .48.146c.153.115.239.26.258.437l.857 8.075a.598.598 0 0 1-.161.467.69.69 0 0 1-.44.23Zm4.668-.51a2.355 2.355 0 0 1-1.32-.226c-.398-.21-.733-.541-1.006-.99-.264-.452-.43-1.006-.5-1.665-.086-.798-.033-1.494.158-2.087.19-.592.493-1.056.908-1.391.414-.345.913-.548 1.498-.61.464-.05.972.005 1.523.162l-.159-2.165a.7.7 0 0 1 .159-.496.671.671 0 0 1 .465-.26.612.612 0 0 1 .481.16.617.617 0 0 1 .248.48l.666 8.123a.65.65 0 0 1-.16.482.674.674 0 0 1-.454.231.725.725 0 0 1-.476-.104.506.506 0 0 1-.224-.385l-.026-.25a3.51 3.51 0 0 1-.789.66 2.41 2.41 0 0 1-.992.331Zm-.022-1.264a2 2 0 0 0 .856-.288c.264-.17.464-.36.601-.571.137-.212.202-.402.193-.57l-.236-2.748a2.598 2.598 0 0 0-.67-.224 2.245 2.245 0 0 0-.767-.06c-.567.06-.97.319-1.213.776-.244.449-.322 1.077-.237 1.884.071.668.235 1.148.491 1.44.265.282.592.402.982.36Zm12.06 1.419a3.186 3.186 0 0 1-1.79-.769c-.507-.448-.881-1.023-1.126-1.725-.234-.701-.307-1.465-.219-2.29.1-.938.382-1.776.846-2.515.464-.739 1.036-1.297 1.714-1.675.69-.386 1.4-.54 2.134-.462.686.074 1.283.33 1.79.77.516.44.891 1.01 1.126 1.71.244.703.322 1.471.232 2.307-.101.946-.384 1.789-.848 2.528-.463.73-1.039 1.287-1.728 1.673a3.519 3.519 0 0 1-2.131.448Zm.141-1.322a2.25 2.25 0 0 0 1.429-.326c.46-.27.847-.675 1.158-1.214.31-.54.505-1.166.581-1.88.07-.65.018-1.224-.154-1.72-.163-.497-.412-.885-.748-1.165a1.903 1.903 0 0 0-1.074-.495c-.482-.052-.945.063-1.388.344-.443.281-.816.697-1.119 1.246-.302.54-.492 1.172-.569 1.896-.07.65-.027 1.218.128 1.704.154.485.386.867.694 1.144a1.94 1.94 0 0 0 1.062.466Zm7.45 2.177c-.5-.054-.888-.203-1.162-.448-.273-.255-.454-.678-.54-1.27-.087-.59-.073-1.424.042-2.5.039-.363.095-.76.17-1.194.074-.433.15-.795.229-1.087.062-.228.15-.397.265-.507.115-.11.27-.154.465-.133.186.02.338.092.456.217.118.126.165.295.142.509l-.07.386c-.176.78-.304 1.53-.381 2.254-.101.947-.092 1.6.03 1.96.13.353.34.544.628.575a2.31 2.31 0 0 0 1.058-.154c.373-.148.642-.298.809-.449.061-.05.102-.163.12-.339l.453-3.964a.603.603 0 0 1 .244-.439.69.69 0 0 1 .478-.132.657.657 0 0 1 .44.23c.127.136.18.296.16.482l-.605 5.652a.657.657 0 0 1-.26.45.632.632 0 0 1-.48.146.82.82 0 0 1-.483-.22.57.57 0 0 1-.16-.468l.016-.153c-.38.213-.73.377-1.053.493a2.314 2.314 0 0 1-1.01.103Zm6.513.668a.68.68 0 0 1-.453-.245.632.632 0 0 1-.146-.48l.532-4.97-1.1-.118a.648.648 0 0 1-.452-.245.68.68 0 0 1-.144-.494.616.616 0 0 1 .26-.465.695.695 0 0 1 .509-.143l1.072.115.159-1.49a.679.679 0 0 1 .246-.452.627.627 0 0 1 .495-.158.6.6 0 0 1 .451.26.648.648 0 0 1 .144.493l-.159 1.49 1.183.126c.186.02.337.102.453.246a.665.665 0 0 1 .142.508.679.679 0 0 1-.245.452.648.648 0 0 1-.494.145l-1.183-.127-.532 4.97a.632.632 0 0 1-.244.438.648.648 0 0 1-.495.144Z" fill="#000"/></svg>